<svg xmlns="http://www.w3.org/2000/svg" xmlns:xlink="http://www.w3.org/1999/xlink" version="1.1" class="marks" width="1027" height="378" viewBox="0 0 1027 378"><rect width="1027" height="378" fill="white"/><g fill="none" stroke-miterlimit="10" transform="translate(47,41)"><g class="mark-group role-frame root" role="graphics-object" aria-roledescription="group mark container"><g transform="translate(0,0)"><path class="background" aria-hidden="true" d="M0.5,0.5h975v300h-975Z" stroke="#ddd"/><g><g class="mark-group role-axis" aria-hidden="true"><g transform="translate(0.5,300.5)"><path class="background" aria-hidden="true" d="M0,0h0v0h0Z" pointer-events="none"/><g><g class="mark-rule role-axis-grid" pointer-events="none"><line transform="translate(0,-300)" x2="0" y2="300" stroke="#ddd" stroke-width="1" opacity="1"/><line transform="translate(35,-300)" x2="0" y2="300" stroke="#ddd" stroke-width="1" opacity="1"/><line transform="translate(71,-300)" x2="0" y2="300" stroke="#ddd" stroke-width="1" opacity="1"/><line transform="translate(106,-300)" x2="0" y2="300" stroke="#ddd" stroke-width="1" opacity="1"/><line transform="translate(142,-300)" x2="0" y2="300" stroke="#ddd" stroke-width="1" opacity="1"/><line transform="translate(177,-300)" x2="0" y2="300" stroke="#ddd" stroke-width="1" opacity="1"/><line transform="translate(213,-300)" x2="0" y2="300" stroke="#ddd" stroke-width="1" opacity="1"/><line transform="translate(248,-300)" x2="0" y2="300" stroke="#ddd" stroke-width="1" opacity="1"/><line transform="translate(284,-300)" x2="0" y2="300" stroke="#ddd" stroke-width="1" opacity="1"/><line transform="translate(319,-300)" x2="0" y2="300" stroke="#ddd" stroke-width="1" opacity="1"/><line transform="translate(355,-300)" x2="0" y2="300" stroke="#ddd" stroke-width="1" opacity="1"/><line transform="translate(390,-300)" x2="0" y2="300" stroke="#ddd" stroke-width="1" opacity="1"/><line transform="translate(425,-300)" x2="0" y2="300" stroke="#ddd" stroke-width="1" opacity="1"/><line transform="translate(461,-300)" x2="0" y2="300" stroke="#ddd" stroke-width="1" opacity="1"/><line transform="translate(496,-300)" x2="0" y2="300" stroke="#ddd" stroke-width="1" opacity="1"/><line transform="translate(532,-300)" x2="0" y2="300" stroke="#ddd" stroke-width="1" opacity="1"/><line transform="translate(567,-300)" x2="0" y2="300" stroke="#ddd" stroke-width="1" opacity="1"/><line transform="translate(603,-300)" x2="0" y2="300" stroke="#ddd" stroke-width="1" opacity="1"/><line transform="translate(638,-300)" x2="0" y2="300" stroke="#ddd" stroke-width="1" opacity="1"/><line transform="translate(674,-300)" x2="0" y2="300" stroke="#ddd" stroke-width="1" opacity="1"/><line transform="translate(709,-300)" x2="0" y2="300" stroke="#ddd" stroke-width="1" opacity="1"/><line transform="translate(745,-300)" x2="0" y2="300" stroke="#ddd" stroke-width="1" opacity="1"/><line transform="translate(780,-300)" x2="0" y2="300" stroke="#ddd" stroke-width="1" opacity="1"/><line transform="translate(815,-300)" x2="0" y2="300" stroke="#ddd" stroke-width="1" opacity="1"/><line transform="translate(851,-300)" x2="0" y2="300" stroke="#ddd" stroke-width="1" opacity="1"/><line transform="translate(886,-300)" x2="0" y2="300" stroke="#ddd" stroke-width="1" opacity="1"/><line transform="translate(922,-300)" x2="0" y2="300" stroke="#ddd" stroke-width="1" opacity="1"/><line transform="translate(957,-300)" x2="0" y2="300" stroke="#ddd" stroke-width="1" opacity="1"/></g></g><path class="foreground" aria-hidden="true" d="" pointer-events="none" display="none"/></g></g><g class="mark-group role-axis" aria-hidden="true"><g transform="translate(0.5,0.5)"><path class="background" aria-hidden="true" d="M0,0h0v0h0Z" pointer-events="none"/><g><g class="mark-rule role-axis-grid" pointer-events="none"><line transform="translate(0,300)" x2="975" y2="0" stroke="#ddd" stroke-width="1" opacity="1"/><line transform="translate(0,267)" x2="975" y2="0" stroke="#ddd" stroke-width="1" opacity="1"/><line transform="translate(0,233)" x2="975" y2="0" stroke="#ddd" stroke-width="1" opacity="1"/><line transform="translate(0,200)" x2="975" y2="0" stroke="#ddd" stroke-width="1" opacity="1"/><line transform="translate(0,167)" x2="975" y2="0" stroke="#ddd" stroke-width="1" opacity="1"/><line transform="translate(0,133)" x2="975" y2="0" stroke="#ddd" stroke-width="1" opacity="1"/><line transform="translate(0,100)" x2="975" y2="0" stroke="#ddd" stroke-width="1" opacity="1"/><line transform="translate(0,67)" x2="975" y2="0" stroke="#ddd" stroke-width="1" opacity="1"/><line transform="translate(0,33)" x2="975" y2="0" stroke="#ddd" stroke-width="1" opacity="1"/><line transform="translate(0,0)" x2="975" y2="0" stroke="#ddd" stroke-width="1" opacity="1"/></g></g><path class="foreground" aria-hidden="true" d="" pointer-events="none" display="none"/></g></g><g class="mark-group role-axis" role="graphics-symbol" aria-roledescription="axis" aria-label="X-axis titled 'GDP Per Cápita [Miles de Dólares por persona]' for a linear scale with values from 0 to 55"><g transform="translate(0.5,300.5)"><path class="background" aria-hidden="true" d="M0,0h0v0h0Z" pointer-events="none"/><g><g class="mark-rule role-axis-tick" pointer-events="none"><line transform="translate(0,0)" x2="0" y2="5" stroke="#888" stroke-width="1" opacity="1"/><line transform="translate(35,0)" x2="0" y2="5" stroke="#888" stroke-width="1" opacity="1"/><line transform="translate(71,0)" x2="0" y2="5" stroke="#888" stroke-width="1" opacity="1"/><line transform="translate(106,0)" x2="0" y2="5" stroke="#888" stroke-width="1" opacity="1"/><line transform="translate(142,0)" x2="0" y2="5" stroke="#888" stroke-width="1" opacity="1"/><line transform="translate(177,0)" x2="0" y2="5" stroke="#888" stroke-width="1" opacity="1"/><line transform="translate(213,0)" x2="0" y2="5" stroke="#888" stroke-width="1" opacity="1"/><line transform="translate(248,0)" x2="0" y2="5" stroke="#888" stroke-width="1" opacity="1"/><line transform="translate(284,0)" x2="0" y2="5" stroke="#888" stroke-width="1" opacity="1"/><line transform="translate(319,0)" x2="0" y2="5" stroke="#888" stroke-width="1" opacity="1"/><line transform="translate(355,0)" x2="0" y2="5" stroke="#888" stroke-width="1" opacity="1"/><line transform="translate(390,0)" x2="0" y2="5" stroke="#888" stroke-width="1" opacity="1"/><line transform="translate(425,0)" x2="0" y2="5" stroke="#888" stroke-width="1" opacity="1"/><line transform="translate(461,0)" x2="0" y2="5" stroke="#888" stroke-width="1" opacity="1"/><line transform="translate(496,0)" x2="0" y2="5" stroke="#888" stroke-width="1" opacity="1"/><line transform="translate(532,0)" x2="0" y2="5" stroke="#888" stroke-width="1" opacity="1"/><line transform="translate(567,0)" x2="0" y2="5" stroke="#888" stroke-width="1" opacity="1"/><line transform="translate(603,0)" x2="0" y2="5" stroke="#888" stroke-width="1" opacity="1"/><line transform="translate(638,0)" x2="0" y2="5" stroke="#888" stroke-width="1" opacity="1"/><line transform="translate(674,0)" x2="0" y2="5" stroke="#888" stroke-width="1" opacity="1"/><line transform="translate(709,0)" x2="0" y2="5" stroke="#888" stroke-width="1" opacity="1"/><line transform="translate(745,0)" x2="0" y2="5" stroke="#888" stroke-width="1" opacity="1"/><line transform="translate(780,0)" x2="0" y2="5" stroke="#888" stroke-width="1" opacity="1"/><line transform="translate(815,0)" x2="0" y2="5" stroke="#888" stroke-width="1" opacity="1"/><line transform="translate(851,0)" x2="0" y2="5" stroke="#888" stroke-width="1" opacity="1"/><line transform="translate(886,0)" x2="0" y2="5" stroke="#888" stroke-width="1" opacity="1"/><line transform="translate(922,0)" x2="0" y2="5" stroke="#888" stroke-width="1" opacity="1"/><line transform="translate(957,0)" x2="0" y2="5" stroke="#888" stroke-width="1" opacity="1"/></g><g class="mark-text role-axis-label" pointer-events="none"><text text-anchor="start" transform="translate(0,15)" font-family="sans-serif" font-size="10px" fill="#000" opacity="1">0</text><text text-anchor="middle" transform="translate(35.45454545454545,15)" font-family="sans-serif" font-size="10px" fill="#000" opacity="1">2</text><text text-anchor="middle" transform="translate(70.9090909090909,15)" font-family="sans-serif" font-size="10px" fill="#000" opacity="1">4</text><text text-anchor="middle" transform="translate(106.36363636363636,15)" font-family="sans-serif" font-size="10px" fill="#000" opacity="1">6</text><text text-anchor="middle" transform="translate(141.8181818181818,15)" font-family="sans-serif" font-size="10px" fill="#000" opacity="1">8</text><text text-anchor="middle" transform="translate(177.27272727272728,15)" font-family="sans-serif" font-size="10px" fill="#000" opacity="1">10</text><text text-anchor="middle" transform="translate(212.72727272727272,15)" font-family="sans-serif" font-size="10px" fill="#000" opacity="1">12</text><text text-anchor="middle" transform="translate(248.18181818181816,15)" font-family="sans-serif" font-size="10px" fill="#000" opacity="1">14</text><text text-anchor="middle" transform="translate(283.6363636363636,15)" font-family="sans-serif" font-size="10px" fill="#000" opacity="1">16</text><text text-anchor="middle" transform="translate(319.09090909090907,15)" font-family="sans-serif" font-size="10px" fill="#000" opacity="1">18</text><text text-anchor="middle" transform="translate(354.54545454545456,15)" font-family="sans-serif" font-size="10px" fill="#000" opacity="1">20</text><text text-anchor="middle" transform="translate(390,15)" font-family="sans-serif" font-size="10px" fill="#000" opacity="1">22</text><text text-anchor="middle" transform="translate(425.45454545454544,15)" font-family="sans-serif" font-size="10px" fill="#000" opacity="1">24</text><text text-anchor="middle" transform="translate(460.9090909090909,15)" font-family="sans-serif" font-size="10px" fill="#000" opacity="1">26</text><text text-anchor="middle" transform="translate(496.3636363636363,15)" font-family="sans-serif" font-size="10px" fill="#000" opacity="1">28</text><text text-anchor="middle" transform="translate(531.8181818181818,15)" font-family="sans-serif" font-size="10px" fill="#000" opacity="1">30</text><text text-anchor="middle" transform="translate(567.2727272727273,15)" font-family="sans-serif" font-size="10px" fill="#000" opacity="1">32</text><text text-anchor="middle" transform="translate(602.7272727272727,15)" font-family="sans-serif" font-size="10px" fill="#000" opacity="1">34</text><text text-anchor="middle" transform="translate(638.1818181818181,15)" font-family="sans-serif" font-size="10px" fill="#000" opacity="1">36</text><text text-anchor="middle" transform="translate(673.6363636363636,15)" font-family="sans-serif" font-size="10px" fill="#000" opacity="1">38</text><text text-anchor="middle" transform="translate(709.0909090909091,15)" font-family="sans-serif" font-size="10px" fill="#000" opacity="1">40</text><text text-anchor="middle" transform="translate(744.5454545454546,15)" font-family="sans-serif" font-size="10px" fill="#000" opacity="1">42</text><text text-anchor="middle" transform="translate(780,15)" font-family="sans-serif" font-size="10px" fill="#000" opacity="1">44</text><text text-anchor="middle" transform="translate(815.4545454545454,15)" font-family="sans-serif" font-size="10px" fill="#000" opacity="1">46</text><text text-anchor="middle" transform="translate(850.9090909090909,15)" font-family="sans-serif" font-size="10px" fill="#000" opacity="1">48</text><text text-anchor="middle" transform="translate(886.3636363636364,15)" font-family="sans-serif" font-size="10px" fill="#000" opacity="1">50</text><text text-anchor="middle" transform="translate(921.8181818181818,15)" font-family="sans-serif" font-size="10px" fill="#000" opacity="1">52</text><text text-anchor="middle" transform="translate(957.2727272727273,15)" font-family="sans-serif" font-size="10px" fill="#000" opacity="1">54</text></g><g class="mark-rule role-axis-domain" pointer-events="none"><line transform="translate(0,0)" x2="975" y2="0" stroke="#888" stroke-width="1" opacity="1"/></g><g class="mark-text role-axis-title" pointer-events="none"><text text-anchor="middle" transform="translate(487.5,30)" font-family="sans-serif" font-size="11px" font-weight="bold" fill="#000" opacity="1">GDP Per Cápita [Miles de Dólares por persona]</text></g></g><path class="foreground" aria-hidden="true" d="" pointer-events="none" display="none"/></g></g><g class="mark-group role-axis" role="graphics-symbol" aria-roledescription="axis" aria-label="Y-axis titled 'ECI' for a linear scale with values from −2 to 3"><g transform="translate(0.5,0.5)"><path class="background" aria-hidden="true" d="M0,0h0v0h0Z" pointer-events="none"/><g><g class="mark-rule role-axis-tick" pointer-events="none"><line transform="translate(0,300)" x2="-5" y2="0" stroke="#888" stroke-width="1" opacity="1"/><line transform="translate(0,267)" x2="-5" y2="0" stroke="#888" stroke-width="1" opacity="1"/><line transform="translate(0,233)" x2="-5" y2="0" stroke="#888" stroke-width="1" opacity="1"/><line transform="translate(0,200)" x2="-5" y2="0" stroke="#888" stroke-width="1" opacity="1"/><line transform="translate(0,167)" x2="-5" y2="0" stroke="#888" stroke-width="1" opacity="1"/><line transform="translate(0,133)" x2="-5" y2="0" stroke="#888" stroke-width="1" opacity="1"/><line transform="translate(0,100)" x2="-5" y2="0" stroke="#888" stroke-width="1" opacity="1"/><line transform="translate(0,67)" x2="-5" y2="0" stroke="#888" stroke-width="1" opacity="1"/><line transform="translate(0,33)" x2="-5" y2="0" stroke="#888" stroke-width="1" opacity="1"/><line transform="translate(0,0)" x2="-5" y2="0" stroke="#888" stroke-width="1" opacity="1"/></g><g class="mark-text role-axis-label" pointer-events="none"><text text-anchor="end" transform="translate(-7,303)" font-family="sans-serif" font-size="10px" fill="#000" opacity="1">−2.0</text><text text-anchor="end" transform="translate(-7,269.66666666666663)" font-family="sans-serif" font-size="10px" fill="#000" opacity="1">−1.5</text><text text-anchor="end" transform="translate(-7,236.33333333333334)" font-family="sans-serif" font-size="10px" fill="#000" opacity="1">−1.0</text><text text-anchor="end" transform="translate(-7,203.00000000000003)" font-family="sans-serif" font-size="10px" fill="#000" opacity="1">−0.5</text><text text-anchor="end" transform="translate(-7,169.66666666666669)" font-family="sans-serif" font-size="10px" fill="#000" opacity="1">0.0</text><text text-anchor="end" transform="translate(-7,136.33333333333331)" font-family="sans-serif" font-size="10px" fill="#000" opacity="1">0.5</text><text text-anchor="end" transform="translate(-7,103.00000000000001)" font-family="sans-serif" font-size="10px" fill="#000" opacity="1">1.0</text><text text-anchor="end" transform="translate(-7,69.66666666666666)" font-family="sans-serif" font-size="10px" fill="#000" opacity="1">1.5</text><text text-anchor="end" transform="translate(-7,36.33333333333335)" font-family="sans-serif" font-size="10px" fill="#000" opacity="1">2.0</text><text text-anchor="end" transform="translate(-7,3)" font-family="sans-serif" font-size="10px" fill="#000" opacity="1">2.5</text></g><g class="mark-rule role-axis-domain" pointer-events="none"><line transform="translate(0,300)" x2="0" y2="-300" stroke="#888" stroke-width="1" opacity="1"/></g><g class="mark-text role-axis-title" pointer-events="none"><text text-anchor="middle" transform="translate(-30.7412109375,150) rotate(-90) translate(0,-2)" font-family="sans-serif" font-size="11px" font-weight="bold" fill="#000" opacity="1">ECI</text></g></g><path class="foreground" aria-hidden="true" d="" pointer-events="none" display="none"/></g></g><g class="mark-symbol role-mark layer_0_marks" role="graphics-object" aria-roledescription="symbol mark container"><path aria-label="GDP Per Cápita [Miles de Dólares por persona]: 36.4877397141; ECI: 0.389380759644; REF_AREA: BEL" role="graphics-symbol" aria-roledescription="circle" transform="translate(646.8281131128184,140.70794935704444)" d="M6.708,0A6.708,6.708,0,1,1,-6.708,0A6.708,6.708,0,1,1,6.708,0" fill="red" stroke="black" stroke-opacity="0.9" stroke-width="1.2" opacity="0.99"/><path aria-label="GDP Per Cápita [Miles de Dólares por persona]: 15.6305354169; ECI: −0.815195968311; REF_AREA: BGR" role="graphics-symbol" aria-roledescription="circle" transform="translate(277.0867642078438,221.01306455406876)" d="M6.708,0A6.708,6.708,0,1,1,-6.708,0A6.708,6.708,0,1,1,6.708,0" fill="red" stroke="black" stroke-opacity="0.9" stroke-width="1.2" opacity="0.99"/><path aria-label="GDP Per Cápita [Miles de Dólares por persona]: 37.3105825425; ECI: 2.09716557733; REF_AREA: DEU" role="graphics-symbol" aria-roledescription="circle" transform="translate(661.4148723439309,26.855628177966185)" d="M6.708,0A6.708,6.708,0,1,1,-6.708,0A6.708,6.708,0,1,1,6.708,0" fill="red" stroke="black" stroke-opacity="0.9" stroke-width="1.2" opacity="0.99"/><path aria-label="GDP Per Cápita [Miles de Dólares por persona]: 6.64158677819; ECI: −0.382516195635; REF_AREA: ECU" role="graphics-symbol" aria-roledescription="circle" transform="translate(117.73722015881442,192.1677463756883)" d="M6.708,0A6.708,6.708,0,1,1,-6.708,0A6.708,6.708,0,1,1,6.708,0" fill="red" stroke="black" stroke-opacity="0.9" stroke-width="1.2" opacity="0.99"/><path aria-label="GDP Per Cápita [Miles de Dólares por persona]: 30.1384723023; ECI: 0.175242442095; REF_AREA: ESP" role="graphics-symbol" aria-roledescription="circle" transform="translate(534.2729180870076,154.98383719368812)" d="M6.708,0A6.708,6.708,0,1,1,-6.708,0A6.708,6.708,0,1,1,6.708,0" fill="red" stroke="black" stroke-opacity="0.9" stroke-width="1.2" opacity="0.99"/><path aria-label="GDP Per Cápita [Miles de Dólares por persona]: 35.6519556883; ECI: 1.58374242149; REF_AREA: FIN" role="graphics-symbol" aria-roledescription="circle" transform="translate(632.0119417463293,61.083838567549186)" d="M6.708,0A6.708,6.708,0,1,1,-6.708,0A6.708,6.708,0,1,1,6.708,0" fill="red" stroke="black" stroke-opacity="0.9" stroke-width="1.2" opacity="0.99"/><path aria-label="GDP Per Cápita [Miles de Dólares por persona]: 33.5099990177; ECI: 1.017197359; REF_AREA: FRA" role="graphics-symbol" aria-roledescription="circle" transform="translate(594.0408916770452,98.85350939974109)" d="M6.708,0A6.708,6.708,0,1,1,-6.708,0A6.708,6.708,0,1,1,6.708,0" fill="red" stroke="black" stroke-opacity="0.9" stroke-width="1.2" opacity="0.99"/><path aria-label="GDP Per Cápita [Miles de Dólares por persona]: 28.0304888551; ECI: −0.316627007412; REF_AREA: GRC" role="graphics-symbol" aria-roledescription="circle" transform="translate(496.90412061306887,187.7751338274368)" d="M6.708,0A6.708,6.708,0,1,1,-6.708,0A6.708,6.708,0,1,1,6.708,0" fill="red" stroke="black" stroke-opacity="0.9" stroke-width="1.2" opacity="0.99"/><path aria-label="GDP Per Cápita [Miles de Dólares por persona]: 4.23132364558; ECI: −1.14394514666; REF_AREA: HND" role="graphics-symbol" aria-roledescription="circle" transform="translate(75.0098282624783,242.92967644422723)" d="M6.708,0A6.708,6.708,0,1,1,-6.708,0A6.708,6.708,0,1,1,6.708,0" fill="red" stroke="black" stroke-opacity="0.9" stroke-width="1.2" opacity="0.99"/><path aria-label="GDP Per Cápita [Miles de Dólares por persona]: 19.6490596679; ECI: −1.01474090111; REF_AREA: HRV" role="graphics-symbol" aria-roledescription="circle" transform="translate(348.3242395668408,234.3160600738079)" d="M6.708,0A6.708,6.708,0,1,1,-6.708,0A6.708,6.708,0,1,1,6.708,0" fill="red" stroke="black" stroke-opacity="0.9" stroke-width="1.2" opacity="0.99"/><path aria-label="GDP Per Cápita [Miles de Dólares por persona]: 22.0622482472; ECI: −0.0884125129725; REF_AREA: HUN" role="graphics-symbol" aria-roledescription="circle" transform="translate(391.10349165419416,172.5608341981638)" d="M6.708,0A6.708,6.708,0,1,1,-6.708,0A6.708,6.708,0,1,1,6.708,0" fill="red" stroke="black" stroke-opacity="0.9" stroke-width="1.2" opacity="0.99"/><path aria-label="GDP Per Cápita [Miles de Dólares por persona]: 28.4907912044; ECI: 0.161243076988; REF_AREA: ITA" role="graphics-symbol" aria-roledescription="circle" transform="translate(505.0640258956787,155.91712820082242)" d="M6.708,0A6.708,6.708,0,1,1,-6.708,0A6.708,6.708,0,1,1,6.708,0" fill="red" stroke="black" stroke-opacity="0.9" stroke-width="1.2" opacity="0.99"/><path aria-label="GDP Per Cápita [Miles de Dólares por persona]: 34.3935440249; ECI: 0.903928756911; REF_AREA: KOR" role="graphics-symbol" aria-roledescription="circle" transform="translate(609.7037349875101,106.40474953927205)" d="M6.708,0A6.708,6.708,0,1,1,-6.708,0A6.708,6.708,0,1,1,6.708,0" fill="red" stroke="black" stroke-opacity="0.9" stroke-width="1.2" opacity="0.99"/><path aria-label="GDP Per Cápita [Miles de Dólares por persona]: 17.6496785041; ECI: −0.31416014902; REF_AREA: LVA" role="graphics-symbol" aria-roledescription="circle" transform="translate(312.8806643901812,187.61067660134393)" d="M6.708,0A6.708,6.708,0,1,1,-6.708,0A6.708,6.708,0,1,1,6.708,0" fill="red" stroke="black" stroke-opacity="0.9" stroke-width="1.2" opacity="0.99"/><path aria-label="GDP Per Cápita [Miles de Dólares por persona]: 43.2331549955; ECI: 1.54380143055; REF_AREA: NLD" role="graphics-symbol" aria-roledescription="circle" transform="translate(766.4059294662766,63.746571296343845)" d="M6.708,0A6.708,6.708,0,1,1,-6.708,0A6.708,6.708,0,1,1,6.708,0" fill="red" stroke="black" stroke-opacity="0.9" stroke-width="1.2" opacity="0.99"/><path aria-label="GDP Per Cápita [Miles de Dólares por persona]: 52.640881786; ECI: 0.9806264697; REF_AREA: NOR" role="graphics-symbol" aria-roledescription="circle" transform="translate(933.1792680251347,101.29156868668392)" d="M6.708,0A6.708,6.708,0,1,1,-6.708,0A6.708,6.708,0,1,1,6.708,0" fill="red" stroke="black" stroke-opacity="0.9" stroke-width="1.2" opacity="0.99"/><path aria-label="GDP Per Cápita [Miles de Dólares por persona]: 23.6600950737; ECI: −0.947120095373; REF_AREA: POL" role="graphics-symbol" aria-roledescription="circle" transform="translate(419.4289581255314,229.80800635817153)" d="M6.708,0A6.708,6.708,0,1,1,-6.708,0A6.708,6.708,0,1,1,6.708,0" fill="red" stroke="black" stroke-opacity="0.9" stroke-width="1.2" opacity="0.99"/><path aria-label="GDP Per Cápita [Miles de Dólares por persona]: 23.057739735; ECI: −0.502848592755; REF_AREA: PRT" role="graphics-symbol" aria-roledescription="circle" transform="translate(408.75084075723134,200.18990618368895)" d="M6.708,0A6.708,6.708,0,1,1,-6.708,0A6.708,6.708,0,1,1,6.708,0" fill="red" stroke="black" stroke-opacity="0.9" stroke-width="1.2" opacity="0.99"/><path aria-label="GDP Per Cápita [Miles de Dólares por persona]: 14.6254623396; ECI: −1.04814776004; REF_AREA: ROU" role="graphics-symbol" aria-roledescription="circle" transform="translate(259.26955965655674,236.5431840025034)" d="M6.708,0A6.708,6.708,0,1,1,-6.708,0A6.708,6.708,0,1,1,6.708,0" fill="red" stroke="black" stroke-opacity="0.9" stroke-width="1.2" opacity="0.99"/><path aria-label="GDP Per Cápita [Miles de Dólares por persona]: 7.46480228835; ECI: −0.645285410953; REF_AREA: SLV" role="graphics-symbol" aria-roledescription="circle" transform="translate(132.33058602080177,209.68569406356178)" d="M6.708,0A6.708,6.708,0,1,1,-6.708,0A6.708,6.708,0,1,1,6.708,0" fill="red" stroke="black" stroke-opacity="0.9" stroke-width="1.2" opacity="0.99"/><path aria-label="GDP Per Cápita [Miles de Dólares por persona]: 16.8017245118; ECI: −1.63332855347; REF_AREA: SRB" role="graphics-symbol" aria-roledescription="circle" transform="translate(297.8487527099187,275.55523689822644)" d="M6.708,0A6.708,6.708,0,1,1,-6.708,0A6.708,6.708,0,1,1,6.708,0" fill="red" stroke="black" stroke-opacity="0.9" stroke-width="1.2" opacity="0.99"/></g><g class="mark-group role-scope layer_1_pathgroup" role="graphics-object" aria-roledescription="group mark container"><g transform="translate(0,0)"><path class="background" aria-hidden="true" d="M0,0h975v300h-975Z"/><g><g class="mark-line role-mark layer_1_marks" role="graphics-object" aria-roledescription="line mark container"><path aria-label="GDP Per Cápita [Miles de Dólares por persona]: 4.23132364558; ECI: −1.37311019454; Fit: LinReg; REF_AREA: undefined" role="graphics-symbol" aria-roledescription="line mark" d="M75.01,258.207L933.179,47.903" stroke="#4c78a8" stroke-width="5"/></g></g><path class="foreground" aria-hidden="true" d="" display="none"/></g></g><g class="mark-text role-mark layer_2_marks" role="graphics-object" aria-roledescription="text mark container"><text aria-label="GDP Per Cápita [Miles de Dólares por persona]: 36.4877397141; ECI: 0.389380759644; REF_AREA: BEL" role="graphics-symbol" aria-roledescription="text mark" text-anchor="start" transform="translate(656.8281131128184,143.70794935704444)" font-family="sans-serif" font-size="11px" fill="black">BEL</text><text aria-label="GDP Per Cápita [Miles de Dólares por persona]: 15.6305354169; ECI: −0.815195968311; REF_AREA: BGR" role="graphics-symbol" aria-roledescription="text mark" text-anchor="start" transform="translate(287.0867642078438,224.01306455406876)" font-family="sans-serif" font-size="11px" fill="black">BGR</text><text aria-label="GDP Per Cápita [Miles de Dólares por persona]: 37.3105825425; ECI: 2.09716557733; REF_AREA: DEU" role="graphics-symbol" aria-roledescription="text mark" text-anchor="start" transform="translate(671.4148723439309,29.855628177966185)" font-family="sans-serif" font-size="11px" fill="black">DEU</text><text aria-label="GDP Per Cápita [Miles de Dólares por persona]: 6.64158677819; ECI: −0.382516195635; REF_AREA: ECU" role="graphics-symbol" aria-roledescription="text mark" text-anchor="start" transform="translate(127.73722015881442,195.1677463756883)" font-family="sans-serif" font-size="11px" fill="black">ECU</text><text aria-label="GDP Per Cápita [Miles de Dólares por persona]: 30.1384723023; ECI: 0.175242442095; REF_AREA: ESP" role="graphics-symbol" aria-roledescription="text mark" text-anchor="start" transform="translate(544.2729180870076,157.98383719368812)" font-family="sans-serif" font-size="11px" fill="black">ESP</text><text aria-label="GDP Per Cápita [Miles de Dólares por persona]: 35.6519556883; ECI: 1.58374242149; REF_AREA: FIN" role="graphics-symbol" aria-roledescription="text mark" text-anchor="start" transform="translate(642.0119417463293,64.08383856754918)" font-family="sans-serif" font-size="11px" fill="black">FIN</text><text aria-label="GDP Per Cápita [Miles de Dólares por persona]: 33.5099990177; ECI: 1.017197359; REF_AREA: FRA" role="graphics-symbol" aria-roledescription="text mark" text-anchor="start" transform="translate(604.0408916770452,101.85350939974109)" font-family="sans-serif" font-size="11px" fill="black">FRA</text><text aria-label="GDP Per Cápita [Miles de Dólares por persona]: 28.0304888551; ECI: −0.316627007412; REF_AREA: GRC" role="graphics-symbol" aria-roledescription="text mark" text-anchor="start" transform="translate(506.90412061306887,190.7751338274368)" font-family="sans-serif" font-size="11px" fill="black">GRC</text><text aria-label="GDP Per Cápita [Miles de Dólares por persona]: 4.23132364558; ECI: −1.14394514666; REF_AREA: HND" role="graphics-symbol" aria-roledescription="text mark" text-anchor="start" transform="translate(85.0098282624783,245.92967644422723)" font-family="sans-serif" font-size="11px" fill="black">HND</text><text aria-label="GDP Per Cápita [Miles de Dólares por persona]: 19.6490596679; ECI: −1.01474090111; REF_AREA: HRV" role="graphics-symbol" aria-roledescription="text mark" text-anchor="start" transform="translate(358.3242395668408,237.3160600738079)" font-family="sans-serif" font-size="11px" fill="black">HRV</text><text aria-label="GDP Per Cápita [Miles de Dólares por persona]: 22.0622482472; ECI: −0.0884125129725; REF_AREA: HUN" role="graphics-symbol" aria-roledescription="text mark" text-anchor="start" transform="translate(401.10349165419416,175.5608341981638)" font-family="sans-serif" font-size="11px" fill="black">HUN</text><text aria-label="GDP Per Cápita [Miles de Dólares por persona]: 28.4907912044; ECI: 0.161243076988; REF_AREA: ITA" role="graphics-symbol" aria-roledescription="text mark" text-anchor="start" transform="translate(515.0640258956787,158.91712820082242)" font-family="sans-serif" font-size="11px" fill="black">ITA</text><text aria-label="GDP Per Cápita [Miles de Dólares por persona]: 34.3935440249; ECI: 0.903928756911; REF_AREA: KOR" role="graphics-symbol" aria-roledescription="text mark" text-anchor="start" transform="translate(619.7037349875101,109.40474953927205)" font-family="sans-serif" font-size="11px" fill="black">KOR</text><text aria-label="GDP Per Cápita [Miles de Dólares por persona]: 17.6496785041; ECI: −0.31416014902; REF_AREA: LVA" role="graphics-symbol" aria-roledescription="text mark" text-anchor="start" transform="translate(322.8806643901812,190.61067660134393)" font-family="sans-serif" font-size="11px" fill="black">LVA</text><text aria-label="GDP Per Cápita [Miles de Dólares por persona]: 43.2331549955; ECI: 1.54380143055; REF_AREA: NLD" role="graphics-symbol" aria-roledescription="text mark" text-anchor="start" transform="translate(776.4059294662766,66.74657129634384)" font-family="sans-serif" font-size="11px" fill="black">NLD</text><text aria-label="GDP Per Cápita [Miles de Dólares por persona]: 52.640881786; ECI: 0.9806264697; REF_AREA: NOR" role="graphics-symbol" aria-roledescription="text mark" text-anchor="start" transform="translate(943.1792680251347,104.29156868668392)" font-family="sans-serif" font-size="11px" fill="black">NOR</text><text aria-label="GDP Per Cápita [Miles de Dólares por persona]: 23.6600950737; ECI: −0.947120095373; REF_AREA: POL" role="graphics-symbol" aria-roledescription="text mark" text-anchor="start" transform="translate(429.4289581255314,232.80800635817153)" font-family="sans-serif" font-size="11px" fill="black">POL</text><text aria-label="GDP Per Cápita [Miles de Dólares por persona]: 23.057739735; ECI: −0.502848592755; REF_AREA: PRT" role="graphics-symbol" aria-roledescription="text mark" text-anchor="start" transform="translate(418.75084075723134,203.18990618368895)" font-family="sans-serif" font-size="11px" fill="black">PRT</text><text aria-label="GDP Per Cápita [Miles de Dólares por persona]: 14.6254623396; ECI: −1.04814776004; REF_AREA: ROU" role="graphics-symbol" aria-roledescription="text mark" text-anchor="start" transform="translate(269.26955965655674,239.5431840025034)" font-family="sans-serif" font-size="11px" fill="black">ROU</text><text aria-label="GDP Per Cápita [Miles de Dólares por persona]: 7.46480228835; ECI: −0.645285410953; REF_AREA: SLV" role="graphics-symbol" aria-roledescription="text mark" text-anchor="start" transform="translate(142.33058602080177,212.68569406356178)" font-family="sans-serif" font-size="11px" fill="black">SLV</text><text aria-label="GDP Per Cápita [Miles de Dólares por persona]: 16.8017245118; ECI: −1.63332855347; REF_AREA: SRB" role="graphics-symbol" aria-roledescription="text mark" text-anchor="start" transform="translate(307.8487527099187,278.55523689822644)" font-family="sans-serif" font-size="11px" fill="black">SRB</text></g><g class="mark-group role-legend" role="graphics-symbol" aria-roledescription="legend" aria-label="Symbol legend titled 'Fit' for stroke color with 1 value: LinReg"><g transform="translate(18,18)"><path class="background" aria-hidden="true" d="M10.5,0.5L58.5,0.5C64.01915024494,0.5,68.5,4.98084975506,68.5,10.5L68.5,37.5C68.5,43.01915024494,64.01915024494,47.5,58.5,47.5L10.5,47.5C4.98084975506,47.5,0.5,43.01915024494,0.5,37.5L0.5,10.5C0.5,4.98084975506,4.98084975506,0.5,10.5,0.5Z" pointer-events="none" fill="#EEEEEE" stroke="gray"/><g><g class="mark-group role-legend-entry"><g transform="translate(10,26)"><path class="background" aria-hidden="true" d="M0,0h0v0h0Z" pointer-events="none"/><g><g class="mark-group role-scope" role="graphics-object" aria-roledescription="group mark container"><g transform="translate(0,0)"><path class="background" aria-hidden="true" d="M0,0h47.689453125v11h-47.689453125Z" pointer-events="none" opacity="1"/><g><g class="mark-symbol role-legend-symbol" pointer-events="none"><path transform="translate(6,6)" d="M-5,0L5,0" stroke="#4c78a8" stroke-width="1.5" opacity="1"/></g><g class="mark-text role-legend-label" pointer-events="none"><text text-anchor="start" transform="translate(16,9)" font-family="sans-serif" font-size="10px" fill="#000" opacity="1">LinReg</text></g></g><path class="foreground" aria-hidden="true" d="" pointer-events="none" display="none"/></g></g></g><path class="foreground" aria-hidden="true" d="" pointer-events="none" display="none"/></g></g><g class="mark-text role-legend-title" pointer-events="none"><text text-anchor="start" transform="translate(10,19)" font-family="sans-serif" font-size="11px" font-weight="bold" fill="#000" opacity="1">Fit</text></g></g><path class="foreground" aria-hidden="true" d="" pointer-events="none" display="none"/></g></g><g class="mark-group role-title"><g transform="translate(487.5,-36)"><path class="background" aria-hidden="true" d="M0,0h0v0h0Z" pointer-events="none"/><g><g class="mark-text role-title-text" role="graphics-symbol" aria-roledescription="title" aria-label="Title text 'GDP percapita vs ECI'" pointer-events="none"><text text-anchor="middle" transform="translate(0,10)" font-family="sans-serif" font-size="13px" font-weight="bold" fill="#000" opacity="1">GDP percapita vs ECI</text></g><g class="mark-text role-title-subtitle" role="graphics-symbol" aria-roledescription="subtitle" aria-label="Subtitle text 'Datos de Empleo de OECD SBS 2019'" pointer-events="none"><text text-anchor="middle" transform="translate(0,25)" font-family="sans-serif" font-size="12px" fill="gray" opacity="1">Datos de Empleo de OECD SBS 2019</text></g></g><path class="foreground" aria-hidden="true" d="" pointer-events="none" display="none"/></g></g></g><path class="foreground" aria-hidden="true" d="" display="none"/></g></g></g></svg>